<svg width="32" height="32" viewBox="0 0 32 32" fill="none" xmlns="http://www.w3.org/2000/svg">
  <!-- Simplified diamond ring for favicon -->
  <circle cx="16" cy="16" r="14" stroke="#1f2937" stroke-width="2" fill="none"/>
  <circle cx="16" cy="16" r="10" fill="#1f2937"/>
  <polygon points="16,4 20,12 16,20 12,12" fill="#BA9E1E"/>
  <!-- S letter simplified -->
  <path d="M6 20c0 1 0.5 2 2 2h2c1 0 2-0.5 2-1.5c0-1-1-1.5-2-2l-2-1c-1-0.5-2-1.5-2-2.5c0-1.5 1-2.5 2.5-2.5h1.5c1 0 2 0.5 2 1.5" stroke="#BA9E1E" stroke-width="1.5" fill="none" stroke-linecap="round"/>
  <!-- B letter simplified -->
  <path d="M20 12h2c1 0 2 0.5 2 1.5s-1 1.5-2 1.5h-2M20 15h2.5c1 0 2 0.5 2 1.5s-1 1.5-2 1.5H20M20 12v6" stroke="#BA9E1E" stroke-width="1.5" fill="none" stroke-linecap="round"/>
</svg>
