<svg width="367" height="222" viewBox="0 0 367 222" fill="none" xmlns="http://www.w3.org/2000/svg">
<path opacity="0.1" d="M156.09 0.34529L126.787 29.7526C118.013 32.1696 109.871 36.6008 102.989 42.701L87.7359 56.34C81.8869 61.5769 74.2602 64.4543 66.4041 64.4543H55.05V138.116C66.7481 138.462 77.8728 143.238 86.1877 151.583L106.602 172.07L110.616 176.098L126.099 191.637C129.654 195.205 135.503 195.205 139.059 191.637C140.033 190.658 140.779 189.507 141.18 188.299C142.786 183.867 146.513 180.53 151.101 179.494C155.688 178.458 160.505 179.839 163.831 183.234L170.024 189.335C176.676 196.01 187.457 196.01 194.051 189.335C197.148 186.227 198.811 182.256 198.983 178.17C199.212 173.106 202.194 168.617 206.782 166.43C211.369 164.243 216.702 164.704 220.773 167.639C226.164 171.495 233.676 170.977 238.493 166.143C243.883 160.733 243.883 151.986 238.493 146.634L195.026 103.012L174.497 122.003C158.842 136.505 134.815 136.735 118.874 122.521C100.696 106.292 100.294 77.9782 117.956 61.2316L158.154 23.1345C173.866 8.28698 194.625 0 216.243 0C236.944 0 256.957 7.65395 272.383 21.408L289.643 36.831H357.825C362.871 36.831 367 40.9745 367 46.0388V165.74C367 175.926 358.8 184.155 348.65 184.155H330.3C323.533 184.155 317.57 180.472 314.416 174.947H265.731C263.781 178.803 261.201 182.486 257.99 185.709C248.184 195.55 234.593 199.406 221.863 197.276C219.799 201.477 216.989 205.391 213.491 208.901C197.836 224.612 173.35 226.166 155.918 213.562C141.524 225.533 120.078 224.784 106.602 211.203L91.1766 195.665L87.1625 191.637L66.7481 171.149C63.5942 167.984 59.4655 166.143 55.05 165.797C55.05 175.926 46.7925 184.155 36.7 184.155H18.35C8.20016 184.155 0 175.926 0 165.74V46.0388C0 40.9745 4.12875 36.831 9.175 36.831H66.4041C67.5509 36.831 68.6405 36.4282 69.4433 35.6801L84.6394 22.0986C100.638 7.88414 121.225 0 142.614 0H148.52C151.043 0 153.624 0.115096 156.09 0.34529ZM311.95 147.324V64.4543H284.425C281.042 64.4543 277.773 63.1882 275.307 60.9439L254.148 42.068C243.711 32.7451 230.235 27.6233 216.243 27.6233C201.678 27.6233 187.686 33.2055 177.077 43.2189L136.88 81.316C130.973 86.9558 131.088 96.4513 137.166 101.861C142.499 106.637 150.585 106.522 155.803 101.688L197.033 63.476C202.595 58.2966 211.312 58.6419 216.473 64.2817C221.634 69.9214 221.29 78.6113 215.67 83.7906L215.211 84.251L257.875 127.067C263.609 132.822 267.337 139.9 269 147.267H311.893L311.95 147.324ZM36.7 156.532C36.7 154.09 35.7334 151.748 34.0127 150.021C32.2921 148.294 29.9584 147.324 27.525 147.324C25.0916 147.324 22.7579 148.294 21.0373 150.021C19.3166 151.748 18.35 154.09 18.35 156.532C18.35 158.974 19.3166 161.316 21.0373 163.043C22.7579 164.77 25.0916 165.74 27.525 165.74C29.9584 165.74 32.2921 164.77 34.0127 163.043C35.7334 161.316 36.7 158.974 36.7 156.532ZM339.475 165.74C341.908 165.74 344.242 164.77 345.963 163.043C347.683 161.316 348.65 158.974 348.65 156.532C348.65 154.09 347.683 151.748 345.963 150.021C344.242 148.294 341.908 147.324 339.475 147.324C337.042 147.324 334.708 148.294 332.987 150.021C331.267 151.748 330.3 154.09 330.3 156.532C330.3 158.974 331.267 161.316 332.987 163.043C334.708 164.77 337.042 165.74 339.475 165.74Z" fill="#BA9E1E"/>
</svg>
