<svg width="103" height="86" viewBox="0 0 103 86" fill="none" xmlns="http://www.w3.org/2000/svg">
  <g clip-path="url(#clip0_1_12)">
    <!-- Diamond shape -->
    <path d="M51.0001 32.1666L35.3334 10.2333L41.6001 0.833313H60.4001L66.6667 10.2333L51.0001 32.1666ZM64.7084 19.6333L60.0084 26.2916C68.6251 29.8166 74.5001 38.0416 74.5001 47.8333C74.5001 54.0659 72.0242 60.0432 67.6171 64.4503C63.21 68.8574 57.2327 71.3333 51.0001 71.3333C44.7675 71.3333 38.7902 68.8574 34.3831 64.4503C29.976 60.0432 27.5001 54.0659 27.5001 47.8333C27.5001 38.0416 33.3751 29.8166 41.9917 26.2916L37.2917 19.6333C26.7167 24.725 19.6667 35.3 19.6667 47.8333C19.6667 56.1434 22.9679 64.1132 28.8441 69.9893C34.7202 75.8655 42.69 79.1666 51.0001 79.1666C59.3102 79.1666 67.28 75.8655 73.1561 69.9893C79.0322 64.1132 82.3334 56.1434 82.3334 47.8333C82.3334 35.3 75.2834 24.725 64.7084 19.6333Z" fill="black"/>
    <!-- Letter S -->
    <path d="M8.31005 11.434C8.31005 12.5553 8.69671 13.4833 9.47005 14.218C10.2434 14.9527 11.2487 15.5907 12.486 16.132C13.7234 16.6347 15.096 17.1373 16.604 17.64C18.112 18.104 19.6007 18.6453 21.07 19.264C22.5394 19.844 23.8927 20.598 25.13 21.526C26.406 22.4153 27.4114 23.556 28.146 24.948C28.9194 26.34 29.306 28.08 29.306 30.168C29.306 33.0293 28.552 35.388 27.044 37.244C25.5747 39.1 23.6027 40.492 21.128 41.42C18.6534 42.3093 15.908 42.754 12.892 42.754C10.8427 42.754 8.73538 42.5413 6.57005 42.116C4.44338 41.7293 2.33605 41.13 0.248047 40.318L0.538047 29.298H5.35205L6.57005 36.316L5.81605 34.924C6.97605 35.4653 8.19405 35.8907 9.47005 36.2C10.7847 36.4707 12.0607 36.606 13.298 36.606C14.7287 36.606 16.0434 36.4127 17.242 36.026C18.4407 35.6393 19.388 35.04 20.084 34.228C20.78 33.416 21.128 32.4106 21.128 31.212C21.128 30.0133 20.7607 29.0273 20.026 28.254C19.2914 27.4806 18.286 26.8427 17.01 26.34C15.7727 25.7987 14.4194 25.3153 12.95 24.89C11.4807 24.426 9.99205 23.904 8.48405 23.324C7.01471 22.744 5.64205 22.0093 4.36605 21.12C3.12871 20.2307 2.14271 19.1093 1.40805 17.756C0.67338 16.364 0.306047 14.624 0.306047 12.536C0.306047 9.79065 0.96338 7.54798 2.27805 5.80798C3.59271 4.02932 5.37138 2.69532 7.61405 1.80598C9.85671 0.916651 12.3894 0.471985 15.212 0.471985C17.2227 0.471985 19.3107 0.684651 21.476 1.10998C23.6414 1.53532 25.8067 2.17332 27.972 3.02398L27.334 13.174H22.404L21.186 6.85198L22.114 7.77998C21.1474 7.39332 20.1034 7.10332 18.982 6.90999C17.8994 6.67799 16.7974 6.56199 15.676 6.56199C14.3614 6.56199 13.1434 6.73598 12.022 7.08398C10.9007 7.39332 9.99205 7.91532 9.29605 8.64998C8.63871 9.34598 8.31005 10.274 8.31005 11.434Z" fill="#BA9E1E"/>
    <!-- Letter B -->
    <path d="M88.3439 65.7L88.8659 64.888C91.5726 64.9266 93.9119 65.2746 95.8839 65.932C97.8559 66.5506 99.3832 67.5753 100.466 69.006C101.549 70.398 102.09 72.2733 102.09 74.632C102.09 77.0293 101.491 79.0786 100.292 80.78C99.1319 82.4813 97.3919 83.7766 95.0719 84.666C92.7519 85.5553 89.8712 86 86.4299 86H69.0879V81.824L74.4819 80.258L73.3799 81.94V49.46L74.7139 51.2L69.0879 49.634V45.458L81.3259 45.168H87.2999C90.1226 45.168 92.5199 45.5353 94.4919 46.27C96.4639 46.966 97.9719 48.068 99.0159 49.576C100.06 51.0453 100.582 52.94 100.582 55.26C100.582 58.4306 99.5572 60.886 97.5079 62.626C95.4972 64.3273 92.4426 65.352 88.3439 65.7ZM85.6759 51.026H80.3979L81.6739 49.75V63.496L80.3979 62.336H84.3999C85.8692 62.336 87.1839 62.162 88.3439 61.814C89.5426 61.466 90.4899 60.8666 91.1859 60.016C91.8819 59.1266 92.2299 57.928 92.2299 56.42C92.2299 54.9893 91.9399 53.8873 91.3599 53.114C90.7799 52.3406 89.9872 51.7993 88.9819 51.49C88.0152 51.1806 86.9132 51.026 85.6759 51.026ZM85.6759 80.084C87.1839 80.084 88.5372 79.91 89.7359 79.562C90.9346 79.214 91.8819 78.5953 92.5779 77.706C93.2739 76.8166 93.6219 75.5986 93.6219 74.052C93.6219 72.544 93.3126 71.3646 92.6939 70.514C92.0752 69.6246 91.2826 69.006 90.3159 68.658C89.3492 68.31 88.2859 68.136 87.1259 68.136H80.3979L81.6739 66.686V81.418L80.3979 80.084H85.6759Z" fill="#BA9E1E"/>
  </g>
  <defs>
    <clipPath id="clip0_1_12">
      <rect width="103" height="86" fill="white"/>
    </clipPath>
  </defs>
</svg>