<svg width="20" height="22" viewBox="0 0 20 22" fill="none" xmlns="http://www.w3.org/2000/svg">
<path fill-rule="evenodd" clip-rule="evenodd" d="M8 0.5C6.37 0.5 5.25 1.86 5.25 3.39C5.25 5.23 6.47 6.64 7.52 7.52C8.12452 8.02562 8.78163 8.46481 9.48 8.83C9.54 8.86 9.59 8.89 9.63 8.9L9.67 8.92H9.68C9.88 9.02 10.12 9.02 10.32 8.93H10.33L10.37 8.9C10.41 8.89 10.46 8.86 10.52 8.83C11.2184 8.46481 11.8755 8.02562 12.48 7.52C13.53 6.64 14.75 5.23 14.75 3.39C14.75 1.86 13.63 0.5 12 0.5C11.41 0.5 10.88 0.63 10.4 0.92C10.26 1.01 10.12 1.12 10 1.23C9.88 1.12 9.74 1.01 9.6 0.92C9.12 0.63 8.59 0.5 8 0.5ZM10.24 7.27C10.15 7.32 10.07 7.37 10 7.41C9.93 7.37 9.85 7.32 9.76 7.27C9.31048 7.00389 8.8825 6.70297 8.48 6.37C7.53 5.58 6.75 4.55 6.75 3.39C6.75 2.56 7.32 2 8 2C8.36 2 8.61 2.08 8.8 2.19C8.99 2.31 9.17 2.51 9.33 2.83C9.46 3.08 9.72 3.24 10 3.24C10.28 3.24 10.54 3.08 10.67 2.83C10.83 2.51 11.01 2.31 11.2 2.19C11.39 2.08 11.64 2 12 2C12.68 2 13.25 2.56 13.25 3.39C13.25 4.55 12.47 5.58 11.52 6.37C11.06 6.76 10.59 7.06 10.24 7.27ZM6.5 11C3.88 11 1.75 13.13 1.75 15.75C1.75 18.37 3.88 20.5 6.5 20.5C7.34 20.5 8.14 20.28 8.82 19.89C7.80495 18.7503 7.24594 17.2762 7.25 15.75C7.25 14.16 7.84 12.71 8.82 11.61C8.14 11.22 7.34 11 6.5 11ZM6.5 22C7.8 22 9 21.61 10 20.93C11 21.61 12.2 22 13.5 22C16.95 22 19.75 19.2 19.75 15.75C19.75 12.3 16.95 9.5 13.5 9.5C12.2 9.5 11 9.89 10 10.57C9 9.89 7.8 9.5 6.5 9.5C3.05 9.5 0.25 12.3 0.25 15.75C0.25 19.2 3.05 22 6.5 22ZM13.5 11C12.66 11 11.86 11.22 11.18 11.61C12.16 12.71 12.75 14.16 12.75 15.75C12.75 17.34 12.16 18.79 11.18 19.89C11.86 20.28 12.66 20.5 13.5 20.5C16.12 20.5 18.25 18.37 18.25 15.75C18.25 13.13 16.12 11 13.5 11ZM11.25 15.75C11.25 14.51 10.78 13.38 10 12.54C9.22 13.38 8.75 14.51 8.75 15.75C8.75 16.99 9.22 18.12 10 18.96C10.78 18.12 11.25 16.99 11.25 15.75Z" fill="currentColor"/>
</svg> 